<svg width="16" height="16" viewBox="0 0 16 16" fill="none" xmlns="http://www.w3.org/2000/svg">
<path d="M8 0.5C6.51664 0.5 5.0666 0.939867 3.83323 1.76398C2.59986 2.58809 1.63856 3.75943 1.07091 5.12987C0.50325 6.50032 0.354725 8.00832 0.644114 9.46318C0.933503 10.918 1.64781 12.2544 2.6967 13.3033C3.7456 14.3522 5.08197 15.0665 6.53683 15.3559C7.99168 15.6453 9.49968 15.4968 10.8701 14.9291C12.2406 14.3614 13.4119 13.4001 14.236 12.1668C15.0601 10.9334 15.5 9.48336 15.5 8C15.5 6.01088 14.7098 4.10322 13.3033 2.6967C11.8968 1.29018 9.98913 0.5 8 0.5ZM9.04167 11.8042C9.04167 11.9036 9.00216 11.999 8.93184 12.0693C8.86151 12.1397 8.76613 12.1792 8.66667 12.1792H7.33334C7.23388 12.1792 7.1385 12.1397 7.06817 12.0693C6.99785 11.999 6.95834 11.9036 6.95834 11.8042V7.73333C6.95834 7.63388 6.99785 7.5385 7.06817 7.46817C7.1385 7.39784 7.23388 7.35833 7.33334 7.35833H8.66667C8.76613 7.35833 8.86151 7.39784 8.93184 7.46817C9.00216 7.5385 9.04167 7.63388 9.04167 7.73333V11.8042ZM8 6.69167C7.71644 6.68756 7.44043 6.59966 7.2067 6.43904C6.97297 6.27843 6.79198 6.05227 6.68649 5.78902C6.581 5.52578 6.55574 5.23721 6.61387 4.95964C6.67201 4.68207 6.81094 4.42789 7.0132 4.2291C7.21546 4.03031 7.472 3.89579 7.75053 3.84246C8.02907 3.78913 8.31715 3.81939 8.57854 3.92941C8.83992 4.03943 9.06292 4.22431 9.21947 4.46078C9.37602 4.69725 9.45913 4.97474 9.45834 5.25833C9.4567 5.4482 9.41768 5.6359 9.34351 5.81069C9.26934 5.98548 9.16146 6.14395 9.02604 6.27705C8.89062 6.41015 8.73031 6.51527 8.55426 6.58641C8.37821 6.65755 8.18988 6.69332 8 6.69167Z" fill="#009CDE"/>
</svg>
